<svg id="b849a2f0-74e0-42be-b224-12e88fa50e48" xmlns="http://www.w3.org/2000/svg" viewBox="0 0 920.11 411.95"><defs><style>.cls-1{fill:#e6e6e6;}.cls-2{fill:#d23f2f;}.cls-3{fill:#3f3d56;}.cls-4{fill:#ffb8b8;}.cls-5{fill:#2f2e41;}</style></defs><path class="cls-1" d="M436.53,410H632.12c7.72,0,7.73-12,0-12H436.53C428.81,398,428.79,410,436.53,410Z" transform="translate(0 0)"/><path class="cls-2" d="M383.72,149.23H188.79A7.78,7.78,0,0,0,181,157v38.72c9.72.23,16,8.26,17.56,18v35.1h.74a.45.45,0,0,1,.45.45V268a.45.45,0,0,1-.45.44h-.74V381.3c0,2.48,0,7,0,7H383.72a7.78,7.78,0,0,0,7.77-7.77V157A7.78,7.78,0,0,0,383.72,149.23Z" transform="translate(0 0)"/><path class="cls-2" d="M745.9,21.81v211.9H405V140.42a16,16,0,0,0-16-16H325.05V21.81Z" transform="translate(0 0)"/><path class="cls-3" d="M767,263.58H405.35v-1.47H765.47V12.55A11.07,11.07,0,0,0,754.4,1.48H312.14a11.09,11.09,0,0,0-11.08,11.07V123.48h-1.47V12.55A12.56,12.56,0,0,1,312.14,0H754.4A12.56,12.56,0,0,1,767,12.55Z" transform="translate(0 0)"/><path class="cls-3" d="M732.69,308.62H405.35v-1.48H732.69a32.81,32.81,0,0,0,32.78-32.78V263.58H405.35v-1.47H767v12.25A34.3,34.3,0,0,1,732.69,308.62Z" transform="translate(0 0)"/><path class="cls-3" d="M635.54,381c-18.25-17.52-30.25-40.39-34.11-72.36H466.94c-1.37,29.91-13.3,52.35-34.81,72.28l-2.28.08c22.2-20.12,34.43-42.72,35.64-73.13l0-.71H602.74l.08.66c3.79,32.51,16,55.52,34.74,73.06Z" transform="translate(0 0)"/><path class="cls-3" d="M388.63,411.52H181.46v-1.47H388.63a16,16,0,0,0,16-16V140.75a16,16,0,0,0-16-16H181.46a16,16,0,0,0-16,16v54.67H164V140.75a17.47,17.47,0,0,1,17.45-17.45H388.63a17.47,17.47,0,0,1,17.46,17.45V394.07A17.47,17.47,0,0,1,388.63,411.52Z" transform="translate(0 0)"/><path class="cls-3" d="M285.05,142a5,5,0,1,1,5-5A5,5,0,0,1,285.05,142Zm0-8.85A3.85,3.85,0,1,0,288.9,137h0a3.86,3.86,0,0,0-3.85-3.85Z" transform="translate(0 0)"/><path class="cls-3" d="M285.05,405.86a6.39,6.39,0,1,1,6.39-6.38A6.39,6.39,0,0,1,285.05,405.86Zm0-11.3a4.92,4.92,0,1,0,4.91,4.92h0A4.92,4.92,0,0,0,285.05,394.56Z" transform="translate(0 0)"/><path class="cls-3" d="M179.38,412H110.8a19.49,19.49,0,0,1-19.47-19.47V214.89a19.49,19.49,0,0,1,19.47-19.47h68.58a19.49,19.49,0,0,1,19.47,19.47v31.78a1.94,1.94,0,0,1,1.19,1.78v20.67a1.94,1.94,0,0,1-1.19,1.78V392.48A19.49,19.49,0,0,1,179.38,412Zm-68.58-215a18,18,0,0,0-18,18V392.48a18,18,0,0,0,18,18h68.58a18,18,0,0,0,18-18V269.57h.74a.45.45,0,0,0,.44-.45V248.45a.45.45,0,0,0-.44-.45h-.74V214.89a18,18,0,0,0-18-18Z" transform="translate(0 0)"/><path class="cls-2" d="M180.14,201h-9a6.65,6.65,0,0,1-3.64,8.67,6.76,6.76,0,0,1-2.51.49H125.74a6.63,6.63,0,0,1-6.64-6.65,6.56,6.56,0,0,1,.49-2.51h-8.36a14,14,0,0,0-14,14V392.35a14,14,0,0,0,14,14h68.91a14,14,0,0,0,14-14h0V215A14,14,0,0,0,180.14,201Z" transform="translate(0 0)"/><path class="cls-3" d="M919.23,411.66H.88a.87.87,0,0,1-.88-.88.89.89,0,0,1,.88-.88H919.23a.88.88,0,0,1,0,1.76Z" transform="translate(0 0)"/><path class="cls-3" d="M636,411.25H431.48a15.51,15.51,0,1,1,0-31H636a15.51,15.51,0,0,1,0,31ZM431.48,381.72a14,14,0,1,0,0,28H636a14,14,0,0,0,0-28Z" transform="translate(0 0)"/><polygon class="cls-4" points="784.5 293.2 790.22 305.17 839.14 288.78 830.69 271.1 784.5 293.2"/><path class="cls-5" d="M790.15,333.59l-18-37.64h0l14.54-7h0l11.58,24.21a14.88,14.88,0,0,1-7,19.85l-1.11.54Z" transform="translate(0 0)"/><polygon class="cls-4" points="772.96 400.14 786.23 399.69 786.79 348.05 771.24 348.97 772.96 400.14"/><path class="cls-5" d="M812,411.86H770.25V395.74h26.84A14.88,14.88,0,0,1,812,410.62v1.24Z" transform="translate(0 0)"/><path class="cls-5" d="M774.06,392.38a5,5,0,0,1-4.84-3.78c-7.26-29.2-34.31-176.34-10.39-205.23l.21-.26.31-.08c1.68-.42,33.33-10.22,51.9,5.08l.21.17L821.8,218.2l27.86,41.35a20.4,20.4,0,0,1-5.53,28.32c-.16.12-.33.23-.51.34L807,311.29a5,5,0,0,1-5.75-.4,5.12,5.12,0,0,1-1.5-2.09l-7.69-19.22a5,5,0,0,1,2.41-6.33l17.14-8.57a3.68,3.68,0,0,0,1.83-2.51,3,3,0,0,0-1-2.54l-19.9-17.15a3,3,0,0,0-4.95,2.38l4.93,130.21a5,5,0,0,1-4.22,5.12l-13.46,2.13A5.25,5.25,0,0,1,774.06,392.38Z" transform="translate(0 0)"/><path class="cls-3" d="M808.38,193.41H808l-49.62-3.68a4.49,4.49,0,0,1-4.16-4.8,4.29,4.29,0,0,1,.25-1.17,47.09,47.09,0,0,0,1.07-27.31c-3.23-12.75-3.31-36.44-3.06-49.42a8.76,8.76,0,0,1,8.28-8.53h1c8.08.11,22.91.69,35.05,3.21a18.39,18.39,0,0,1,14.66,17.7c.28,12.06.32,28.38-1,37.66-1.16,7.83,1,22.86,2.35,31.12a4.5,4.5,0,0,1-3.71,5.17A4.37,4.37,0,0,1,808.38,193.41Z" transform="translate(0 0)"/><path class="cls-4" d="M826.09,240.71a10,10,0,0,1-4.71-13.37,9.35,9.35,0,0,1,.9-1.52L799.36,127h17.33l20.22,96.87a10.08,10.08,0,0,1-10.82,16.84Z" transform="translate(0 0)"/><path class="cls-4" d="M717.56,137.7,745,111.75l10.34,14.47L729.49,149l33.89,26.91c.24,0,.49,0,.74,0a10.86,10.86,0,1,1-10.75,12.3l-.11.11L718,157.67a13.46,13.46,0,0,1-1.35-19C716.93,138.33,717.24,138,717.56,137.7Z" transform="translate(0 0)"/><path class="cls-3" d="M801.19,133.33a4.46,4.46,0,0,1-4.05-2.55,52.46,52.46,0,0,1-4.47-14.57C791.48,108,797.21,103.06,803,102c5.67-1,12.58,1.45,14.34,9.38a20.22,20.22,0,0,1,.35,2c.7,6,1.37,10.68,2,13.89a4.49,4.49,0,0,1-3.58,5.25,4.36,4.36,0,0,1-.62.07l-14.08.71Z" transform="translate(0 0)"/><circle class="cls-5" cx="781.54" cy="59.98" r="30"/><circle class="cls-4" cx="781.73" cy="67.77" r="24.56"/><path class="cls-3" d="M738.13,121.38a4.47,4.47,0,0,1-1.26-4.62A52.73,52.73,0,0,1,743.42,103c4.69-6.88,12.23-6.63,17.25-3.48s8.29,9.57,4.24,16.61a20.49,20.49,0,0,1-1.12,1.73c-3.54,4.91-6.21,8.81-7.93,11.58a4.5,4.5,0,0,1-6.19,1.45,3.75,3.75,0,0,1-.5-.36l-10.86-9Z" transform="translate(0 0)"/><path class="cls-5" d="M775.72,33.19c-6-3.6-7.35-12.57-3.75-18.61s10.86-9.19,17.89-9.4c10-.3,19.73,4.7,26.76,11.87s11.66,16.36,15.19,25.76,6.07,19.15,9.55,28.57c1.79,4.83,4,9.79,8.07,12.93S860,88,863.51,84.23c0,6.06-4.66,11.57-10.42,13.45s-12.29.46-17.34-2.89c-8.76-5.81-13-16.41-15.41-26.65s-3.61-21-8.48-30.27c-2-3.87-4.77-7.54-8.66-9.51s-9.06-1.84-12.19,1.2c-1.44,1.4-2.38,3.32-4,4.49a8,8,0,0,1-7,.73,23.64,23.64,0,0,1-6.36-3.59" transform="translate(0 0)"/><path class="cls-5" d="M756.07,51.17a29.39,29.39,0,0,0,41.12,6c.34-.26.68-.52,1-.79,2.38-1.94,4.6-4.61,4.45-7.68s-2.73-5.62-5.35-7.36A34.49,34.49,0,0,0,773.89,36c-4.67.63-9.36,2.34-12.67,5.7s-5,8.58-3.25,13" transform="translate(0 0)"/></svg>