<svg id="bd4d382f-3ad3-4c40-a04c-93bb574f9328" xmlns="http://www.w3.org/2000/svg" viewBox="0 0 650.5 698.68"><defs><style>.cls-1{fill:#f0f0f0;}.cls-2{fill:#ffb6b6;}.cls-3{fill:#2f2e41;}.cls-4{fill:#e6e6e6;}.cls-5{fill:#d23f2f;}.cls-6{fill:#3f3d56;}.cls-7{fill:#cacaca;}.cls-8{fill:#f2f2f2;}.cls-9{fill:#e4e4e4;}.cls-10{fill:#fff;}</style></defs><path class="cls-1" d="M140.81,283c-30.67-30.19-43.62-61.68-36.47-88.68,9.17-34.64,49.92-58.6,111.79-65.72l.23,2c-61,7-101.14,30.44-110.09,64.25-7,26.27,5.81,57.07,35.94,86.74Z" transform="translate(0 0)"/><path class="cls-1" d="M436.68,390.12c-38.27,0-79.86-5.69-121.17-16.62-51.09-13.53-97.93-33.94-135.46-59l1.11-1.66c37.35,25,84,45.3,134.86,58.76,46,12.18,92.29,17.81,133.93,16.33l.07,2Q443.44,390.12,436.68,390.12Z" transform="translate(0 0)"/><path class="cls-1" d="M524.48,377.54l-.64-1.89c34.23-11.57,55.64-30.22,61.91-53.92,8-30.12-9.35-65.08-48.79-98.44C497.32,189.77,440.16,162,376,145l.51-1.94c64.43,17.06,121.87,45,161.73,78.73,40.07,33.88,57.62,69.57,49.44,100.49C581.23,346.62,559.38,365.75,524.48,377.54Z" transform="translate(0 0)"/><path class="cls-1" d="M210.17,391C135,357.6,77,314.33,47,269.11L48.67,268C78.48,312.91,136.12,355.93,211,389.13Z" transform="translate(0 0)"/><path class="cls-1" d="M474.58,448.74q-11.64,0-23.67-.52l.09-2c59.86,2.59,112.68-4.57,152.76-20.72l.75,1.86C569.55,441.44,525,448.74,474.58,448.74Z" transform="translate(0 0)"/><path class="cls-1" d="M431,130.36c-12.43-4.05-25.22-7.82-38-11.2-73.58-19.48-145.9-26.4-209.16-20l-.2-2c63.49-6.42,136.07.52,209.87,20,12.82,3.4,25.64,7.18,38.11,11.24Z" transform="translate(0 0)"/><path class="cls-1" d="M93.81,286c-30.67-30.19-43.62-61.68-36.47-88.68,9.17-34.64,49.92-58.6,111.79-65.72l.23,2c-61,7-101.14,30.44-110.09,64.25-7,26.27,5.81,57.07,35.94,86.74Z" transform="translate(0 0)"/><path class="cls-1" d="M389.68,393.12c-38.27,0-79.86-5.69-121.17-16.62-51.09-13.53-97.93-33.94-135.46-59l1.11-1.66c37.35,25,84,45.3,134.86,58.76,46,12.18,92.29,17.81,133.93,16.33l.07,2Q396.44,393.12,389.68,393.12Z" transform="translate(0 0)"/><path class="cls-1" d="M477.48,380.54l-.64-1.89c34.23-11.57,55.64-30.22,61.91-53.92,8-30.12-9.35-65.08-48.79-98.44C450.32,192.77,393.16,165,329,148l.51-1.94c64.43,17.06,121.87,45,161.73,78.73,40.07,33.88,57.62,69.57,49.44,100.49C534.23,349.62,512.38,368.75,477.48,380.54Z" transform="translate(0 0)"/><path class="cls-1" d="M163.17,394C88,360.6,30,317.33,0,272.11L1.67,271C31.48,315.91,89.12,358.93,164,392.13Z" transform="translate(0 0)"/><path class="cls-1" d="M427.58,451.74q-11.64,0-23.67-.52l.09-2c59.86,2.59,112.68-4.57,152.76-20.72l.75,1.86C522.55,444.44,478,451.74,427.58,451.74Z" transform="translate(0 0)"/><path class="cls-1" d="M384,133.36c-12.43-4.05-25.22-7.82-38-11.2-73.58-19.48-145.9-26.4-209.16-20l-.2-2c63.49-6.42,136.07.52,209.87,20,12.82,3.4,25.64,7.18,38.11,11.24Z" transform="translate(0 0)"/><g id="a9a6faa7-f9f8-42ac-a25b-707af5da24b3"><path id="b6badfe4-ecf7-40b3-ab9a-d2e442646810" class="cls-2" d="M396.39,313.38l17-2,6,52,15.31,71.81a11,11,0,1,1-11.93,1.5l-15.38-42.31Z" transform="translate(0 0)"/><path id="eb66624a-625c-4022-aac2-7acd24895291" class="cls-2" d="M371.69,684.1h14l6.66-54H371.69Z" transform="translate(0 0)"/><path id="a67f4ff8-8ebc-49ff-bea4-e9dad041920e" class="cls-3" d="M368.12,697.67h45.16v-.57a17.58,17.58,0,0,0-17.58-17.58H368.12Z" transform="translate(0 0)"/><path id="f2666089-6ab6-4bee-94c7-c04bd8c6f398" class="cls-2" d="M264.2,676.46,278,679.11l16.79-51.78-20.3-3.92Z" transform="translate(0 0)"/><path id="e202d012-54d0-4120-af29-b522f4befddf" class="cls-3" d="M258.12,689.11l44.34,8.56.11-.56a17.57,17.57,0,0,0-13.92-20.59h0l-27.09-5.23Z" transform="translate(0 0)"/><path id="a7799203-f10e-4175-b8b3-865436e3910e" class="cls-3" d="M393.65,228.17l-8.14,15.61-60.95-13.44,6.68-30.27c5.28-24,26.47-41.27,50.43-36s35.15,28.71,29.86,52.67l-9.82,30.6-9.94-2.19Z" transform="translate(0 0)"/><path id="fb4efb0d-4e34-4aa4-af9b-85f1b453b517" class="cls-3" d="M415.39,400.38s6,30-2,74-10,63-10,63,6,7,2,11,0,12,0,12l-9,97-31-5,4-91s-4-8-2-10-2-14-2-14l-5-95-31,104s3,4,0,7-9,18-9,18l-20,70-32-6,18-80s-2-5,1-8a7.86,7.86,0,0,0,2-7s-3-3,1-7,6-20,6-20,3-107,13-113S415.39,400.38,415.39,400.38Z" transform="translate(0 0)"/><circle id="b01ade62-873d-4b0f-b59f-ba4b75076aa4" class="cls-2" cx="370.17" cy="206.92" r="28"/><path id="b558b83e-b369-42dd-8f4d-22a4c2c4f5e2" class="cls-4" d="M330.71,242.76s-20.33-2.38-26.33,3.62l6,121s-4,3-2,10a28.36,28.36,0,0,1,0,14s-6,7-3,10,111,1,111,1,4-7-2-11-3-15-3-15,2-3-3-8-9-46-9-46l13-50s-13.08-14.77-28-15.88Z" transform="translate(0 0)"/><path id="f8cef0e8-06d3-4209-b80b-8403fdc77134" class="cls-4" d="M396.89,273.07l15.49-.69s9,18,10,34l5.51,59.69-35.51,5.31Z" transform="translate(0 0)"/><path id="f41dbfcb-858e-4d45-9b75-6131cbc8ec95" class="cls-3" d="M394.16,208.31l10.4-13.38a10.92,10.92,0,0,0-8.28-13L357,173.29a10.93,10.93,0,0,0-13,8.28l0,.1,2.82,16.16.49-.09c24.38-4.34,31.33-2.81,46.46,10.23Z" transform="translate(0 0)"/><path id="ed879564-5a8c-4e9d-a096-68f5b6ab9b62" class="cls-2" d="M289.51,422.12l1.87-78.74,2-56,24,3L304.5,424.23A11,11,0,1,1,289,422.48h0c.15-.13.31-.24.47-.36Z" transform="translate(0 0)"/><path id="aaf783f1-6b30-4a3e-8412-451b817d63a0" class="cls-4" d="M321.89,248.07l-17.51-1.69s-3,0-6,10-19.49,115.69-19.49,115.69l36.5,3.31Z" transform="translate(0 0)"/></g><circle id="af8c7bff-6816-464a-b0a9-6a679aecd372" class="cls-5" cx="156.17" cy="65.03" r="45.5"/><path class="cls-6" d="M166.84,93a46.5,46.5,0,1,1,46.5-46.5h0A46.55,46.55,0,0,1,166.84,93Zm0-91a44.5,44.5,0,1,0,44.5,44.5h0A44.55,44.55,0,0,0,166.84,2Z" transform="translate(0 0)"/><circle id="a60e3f6d-2e55-4ba4-880b-24129c1d171d" class="cls-5" cx="574.83" cy="227.42" r="31.24"/><path class="cls-6" d="M582.16,246.94a32.25,32.25,0,1,1,32.24-32.25A32.25,32.25,0,0,1,582.16,246.94Zm0-62.49a30.25,30.25,0,1,0,30.24,30.24h0A30.28,30.28,0,0,0,582.16,184.45Z" transform="translate(0 0)"/><path id="aea90dfe-d7fa-4ce2-8106-f6b698b2b1f8" class="cls-7" d="M649.5,698.68H49.5a1,1,0,0,1,0-2h600a1,1,0,0,1,0,2Z" transform="translate(0 0)"/><g id="baaccb77-fe9e-4683-9e52-b00664372613"><path id="fb603159-8dea-4755-9c7c-d25bd7f9bc0c" class="cls-5" d="M607.7,658a19.48,19.48,0,0,1-18.81-3.31c-6.58-5.53-8.65-14.64-10.33-23.07l-5-25L584,613.85c7.48,5.15,15.13,10.47,20.31,17.93s7.44,17.65,3.28,25.73" transform="translate(0 0)"/><path id="a8ec8a48-e4af-4fa0-8d27-3c92af74fe9a" class="cls-8" d="M606.09,690c1.31-9.54,2.66-19.21,1.74-28.85-.82-8.57-3.43-16.93-8.75-23.79a39.57,39.57,0,0,0-10.15-9.2c-1-.64-1.95,1-.94,1.61a37.59,37.59,0,0,1,14.88,17.95c3.24,8.24,3.76,17.23,3.2,26-.34,5.29-1.05,10.55-1.78,15.81a1,1,0,0,0,.66,1.14.94.94,0,0,0,1.14-.65Z" transform="translate(0 0)"/><path id="b09ba816-4f06-4578-8eb4-a29f6123e742" class="cls-4" d="M596.66,674.64a14.33,14.33,0,0,1-12.49,6.45c-6.32-.3-11.59-4.72-16.34-8.9l-14-12.4,9.29-.44c6.68-.32,13.53-.62,19.9,1.44s12.23,7,13.39,13.6" transform="translate(0 0)"/><path id="add4fdd4-5f13-462c-8fd8-fbec5e5c357a" class="cls-8" d="M609.79,695.43c-6.3-11.15-13.61-23.55-26.68-27.51a29.62,29.62,0,0,0-11.23-1.16c-1.19.1-.89,1.94.3,1.83a27.73,27.73,0,0,1,17.92,4.74c5,3.44,9,8.22,12.31,13.29,2,3.1,3.86,6.34,5.69,9.57C608.68,697.22,610.38,696.48,609.79,695.43Z" transform="translate(0 0)"/></g><g id="ee656491-410e-4193-8926-ffe46b73d48a"><path id="a6ee8b3a-6384-4722-b3cb-80bef4872a5a" class="cls-4" d="M113,671a14.33,14.33,0,0,0,14-1.64c5.07-3.79,7-10.39,8.57-16.52l4.71-18.12-8,4.83c-5.72,3.47-11.57,7.05-15.69,12.32s-6.22,12.65-3.5,18.77" transform="translate(0 0)"/><path id="f2bbd591-1ffb-4624-8852-7218542fde3c" class="cls-8" d="M113.74,695.58c-1-12.77-1.88-27.14,6.74-37.73a29.73,29.73,0,0,1,8.66-7.24c1-.59,1.82,1.11.77,1.69a27.75,27.75,0,0,0-12.2,13.94c-2.26,5.68-2.85,11.84-2.77,17.9,0,3.71.34,7.42.63,11.12C115.67,696.44,113.84,696.78,113.74,695.58Z" transform="translate(0 0)"/></g><circle id="e41ec8f5-a87e-4b16-bc24-7a000bd09eb1" class="cls-9" cx="94.87" cy="334.46" r="44.91"/><path class="cls-3" d="M105.4,362.08a45.92,45.92,0,1,1,45.91-45.92h0A46,46,0,0,1,105.4,362.08Zm0-89.83a43.92,43.92,0,1,0,43.91,43.91A43.91,43.91,0,0,0,105.4,272.25Z" transform="translate(0 0)"/><circle class="cls-8" cx="67.75" cy="170.34" r="8"/><circle class="cls-5" cx="478.75" cy="130.34" r="8"/><circle class="cls-8" cx="531.75" cy="414.34" r="8"/><polygon class="cls-8" points="214.06 206.86 214.06 206.86 214.06 206.86 214.06 206.86"/><path class="cls-8" d="M173.48,201.64l.3-2,39.08,6c-4-3.84-17.17-15.73-29.13-16.94-14.29-1.44-20.57,4.68-21.41,12.92s4.11,15.49,18.4,16.93c12.11,1.22,27.64-8,32.1-10.89Z" transform="translate(0 0)"/><polygon class="cls-8" points="579.41 70.28 579.41 70.28 579.41 70.28 579.41 70.28"/><path class="cls-8" d="M547.37,95.73l-1.21-1.6,31.55-23.82c-5.53.17-23.25,1.33-32.45,9.06-11,9.24-11,18-5.67,24.35s14,7.86,25-1.38c9.32-7.82,13.51-25.42,14.57-30.6Z" transform="translate(0 0)"/><polygon class="cls-8" points="495.94 306.75 495.94 306.75 495.94 306.75 495.94 306.75"/><path class="cls-8" d="M472.89,325.06l-.87-1.14,22.69-17.14c-4,.12-16.72,1-23.34,6.52-7.91,6.64-7.92,12.95-4.08,17.52s10,5.65,18-1c6.7-5.63,9.72-18.28,10.48-22Z" transform="translate(0 0)"/><path class="cls-1" d="M293.23,52.25c6.15-16.53,20.68-30.81,38.23-32.51A81.28,81.28,0,0,0,318.62,74c.9,7.35,2.66,15.42-1.3,21.67-2.46,3.89-6.8,6.28-11.27,7.36s-9.14,1-13.74.91l-1,.51C288,87.14,287.08,68.78,293.23,52.25Z" transform="translate(0 0)"/><path class="cls-10" d="M331.55,20.1a69.47,69.47,0,0,0-25.81,34.06,29.78,29.78,0,0,0-1.82,9.19,17.14,17.14,0,0,0,2.32,8.73c1.38,2.5,3.09,4.9,3.84,7.69a10.51,10.51,0,0,1-1.47,8.46c-2,3.11-5,5.33-8,7.39-3.32,2.29-6.81,4.61-8.84,8.21-.25.44-.91,0-.67-.41,3.54-6.26,11-8.53,15.51-13.84,2.12-2.48,3.51-5.62,2.85-8.92-.57-2.89-2.33-5.36-3.75-7.88a18.28,18.28,0,0,1-2.59-8.45,27.57,27.57,0,0,1,1.47-9.23,67.44,67.44,0,0,1,9.5-18.79,70.57,70.57,0,0,1,17.06-16.9c.41-.29.77.4.37.69Z" transform="translate(0 0)"/><path class="cls-10" d="M307,49.63a10.42,10.42,0,0,1-5.21-12.45c.16-.47.9-.26.75.22A9.64,9.64,0,0,0,307.44,49c.44.22,0,.89-.41.66Z" transform="translate(0 0)"/><path class="cls-10" d="M305.37,70.91a20.13,20.13,0,0,0,11.39-9.2c.25-.43.91,0,.66.41a20.85,20.85,0,0,1-11.87,9.54C305.07,71.81,304.89,71.06,305.37,70.91Z" transform="translate(0 0)"/><path class="cls-10" d="M319.33,30.63a5.91,5.91,0,0,0,5.51,1c.48-.16.65.6.18.75a6.6,6.6,0,0,1-6.09-1.1.41.41,0,0,1-.13-.54.38.38,0,0,1,.53-.12Z" transform="translate(0 0)"/><path class="cls-1" d="M373.78,61.88l-.89.32a77.92,77.92,0,0,0-11.45,5.26c-.28.15-.57.31-.85.48a81.81,81.81,0,0,0-22.92,19.6,78.71,78.71,0,0,0-6.83,10c-2.8,4.82-5.44,10.27-9.54,13.78a15,15,0,0,1-1.34,1l-28-6.63a1.09,1.09,0,0,1-.17-.13l-1.13-.21.28-.57.16-.33a2.12,2.12,0,0,0,.11-.21.33.33,0,0,1,0-.06c0-.07.07-.13.1-.19.55-1.08,1.11-2.15,1.68-3.22h0a117,117,0,0,1,15.53-22.88c.18-.21.37-.42.57-.62a75.45,75.45,0,0,1,9-8.5,67.5,67.5,0,0,1,5.53-3.94,55.69,55.69,0,0,1,16-7C351,54.93,363.06,55.65,373,61.43,373.28,61.58,373.53,61.72,373.78,61.88Z" transform="translate(0 0)"/><path class="cls-10" d="M373.63,62.22a69.46,69.46,0,0,0-41.11,11.66,29.72,29.72,0,0,0-7,6.24,17.18,17.18,0,0,0-3.41,8.36c-.39,2.83-.47,5.77-1.55,8.46a10.55,10.55,0,0,1-6.28,5.87c-3.46,1.29-7.17,1.25-10.8,1.1-4-.17-8.22-.42-12,1.23-.46.2-.74-.52-.28-.72,6.59-2.87,13.89-.21,20.71-1.72,3.19-.71,6.18-2.38,7.65-5.41,1.28-2.65,1.37-5.68,1.74-8.55a18.39,18.39,0,0,1,3-8.3A27.63,27.63,0,0,1,331.05,74,67.49,67.49,0,0,1,350,64.67a70.79,70.79,0,0,1,23.79-3.22c.5,0,.38.78-.12.77Z" transform="translate(0 0)"/><path class="cls-10" d="M336.27,71A10.43,10.43,0,0,1,339.61,58c.41-.29.88.34.47.63A9.62,9.62,0,0,0,337,70.75c.22.45-.51.73-.73.29Z" transform="translate(0 0)"/><path class="cls-10" d="M322.14,87a20,20,0,0,0,14.63-.48c.46-.2.74.53.28.73a20.94,20.94,0,0,1-15.22.47C321.35,87.57,321.67,86.86,322.14,87Z" transform="translate(0 0)"/><path class="cls-10" d="M357.54,63.27a5.9,5.9,0,0,0,3.79,4.12c.47.17.16.88-.31.72a6.63,6.63,0,0,1-4.2-4.56.39.39,0,0,1,.22-.5A.38.38,0,0,1,357.54,63.27Z" transform="translate(0 0)"/><path class="cls-1" d="M208.23,280.25c6.15-16.53,20.68-30.81,38.23-32.51A81.28,81.28,0,0,0,233.62,302c.9,7.35,2.66,15.42-1.3,21.67-2.46,3.89-6.8,6.28-11.27,7.36s-9.14,1-13.74.91l-1,.51C203,315.14,202.08,296.78,208.23,280.25Z" transform="translate(0 0)"/><path class="cls-10" d="M246.55,248.1a69.47,69.47,0,0,0-25.81,34.06,29.78,29.78,0,0,0-1.82,9.19,17.14,17.14,0,0,0,2.32,8.73c1.38,2.5,3.09,4.9,3.84,7.69a10.51,10.51,0,0,1-1.47,8.46c-2,3.11-5,5.33-8,7.39-3.32,2.29-6.81,4.61-8.84,8.21-.25.44-.91,0-.67-.41,3.54-6.26,11-8.53,15.51-13.84,2.12-2.48,3.51-5.62,2.85-8.92-.57-2.89-2.33-5.36-3.75-7.88a18.28,18.28,0,0,1-2.59-8.45,27.57,27.57,0,0,1,1.47-9.23,67.44,67.44,0,0,1,9.5-18.79,70.57,70.57,0,0,1,17.06-16.9c.41-.29.77.4.37.69Z" transform="translate(0 0)"/><path class="cls-10" d="M222,277.63a10.42,10.42,0,0,1-5.21-12.45c.16-.47.9-.26.75.22A9.64,9.64,0,0,0,222.44,277C222.88,277.19,222.47,277.86,222,277.63Z" transform="translate(0 0)"/><path class="cls-10" d="M220.37,298.91a20.13,20.13,0,0,0,11.39-9.2c.25-.43.91,0,.66.41a20.85,20.85,0,0,1-11.87,9.54c-.48.15-.66-.6-.18-.75Z" transform="translate(0 0)"/><path class="cls-10" d="M234.33,258.63a5.91,5.91,0,0,0,5.51,1c.48-.16.65.6.18.75a6.6,6.6,0,0,1-6.09-1.1.4.4,0,0,1-.13-.54.38.38,0,0,1,.53-.12Z" transform="translate(0 0)"/><path class="cls-1" d="M288.78,289.88l-.89.32a77.92,77.92,0,0,0-11.45,5.26c-.28.15-.57.31-.85.48a81.81,81.81,0,0,0-22.92,19.6,78.71,78.71,0,0,0-6.83,10c-2.8,4.82-5.44,10.27-9.54,13.78a15,15,0,0,1-1.34,1l-28-6.63a1.09,1.09,0,0,1-.17-.13l-1.13-.21.28-.57.16-.33a2.12,2.12,0,0,0,.11-.21l0-.06c0-.07.07-.13.1-.19.55-1.08,1.11-2.15,1.68-3.22h0a117,117,0,0,1,15.53-22.88c.18-.21.37-.42.57-.62a75.45,75.45,0,0,1,9-8.5c1.78-1.4,3.62-2.72,5.53-3.94a55.69,55.69,0,0,1,16-7c11.29-2.93,23.39-2.21,33.35,3.57C288.28,289.58,288.53,289.72,288.78,289.88Z" transform="translate(0 0)"/><path class="cls-10" d="M288.63,290.22a69.46,69.46,0,0,0-41.11,11.66,29.72,29.72,0,0,0-7,6.24,17.18,17.18,0,0,0-3.41,8.36c-.39,2.83-.47,5.77-1.55,8.46a10.55,10.55,0,0,1-6.28,5.87c-3.46,1.29-7.17,1.25-10.8,1.1-4-.17-8.22-.42-12,1.23-.46.2-.74-.52-.28-.72,6.59-2.87,13.89-.21,20.71-1.72,3.19-.71,6.18-2.38,7.65-5.41,1.28-2.65,1.37-5.68,1.74-8.55a18.39,18.39,0,0,1,3-8.3,27.63,27.63,0,0,1,6.72-6.49A67.49,67.49,0,0,1,265,292.67a70.79,70.79,0,0,1,23.79-3.22c.5,0,.38.78-.12.77Z" transform="translate(0 0)"/><path class="cls-10" d="M251.27,299A10.43,10.43,0,0,1,254.61,286c.41-.29.88.34.47.63A9.62,9.62,0,0,0,252,298.75c.22.45-.51.73-.73.29Z" transform="translate(0 0)"/><path class="cls-10" d="M237.14,315a20,20,0,0,0,14.63-.48c.46-.2.74.53.28.73a20.94,20.94,0,0,1-15.22.47c-.48-.17-.16-.88.31-.72Z" transform="translate(0 0)"/><path class="cls-10" d="M272.54,291.27a5.9,5.9,0,0,0,3.79,4.12c.47.17.16.88-.31.72a6.63,6.63,0,0,1-4.2-4.56.39.39,0,0,1,.22-.5.38.38,0,0,1,.5.22Z" transform="translate(0 0)"/><path class="cls-1" d="M556.57,404.17c-3.13-11.73-.67-25.54,8.51-33.49a55.9,55.9,0,0,0,14.43,35.59c3.43,3.77,7.64,7.6,7.91,12.68a12.52,12.52,0,0,1-3.4,8.63,36.79,36.79,0,0,1-7.35,6l-.38.7C567.57,425.82,559.71,415.9,556.57,404.17Z" transform="translate(0 0)"/><path class="cls-10" d="M565.27,370.84a47.76,47.76,0,0,0-.91,29.41,20.27,20.27,0,0,0,2.64,5.89,11.75,11.75,0,0,0,4.78,4A24.48,24.48,0,0,1,577,412.9a7.22,7.22,0,0,1,2.55,5.33,19,19,0,0,1-1.53,7.32c-.95,2.61-2,5.31-1.69,8.14a.27.27,0,0,1-.54,0c-.5-4.93,2.76-9.16,3.19-14a7.32,7.32,0,0,0-2-6.14c-1.47-1.39-3.44-2.08-5.24-2.93A12.45,12.45,0,0,1,567,407a19,19,0,0,1-2.86-5.76A46.51,46.51,0,0,1,562,386.89a48.55,48.55,0,0,1,2.84-16.28c.11-.33.59-.09.48.23Z" transform="translate(0 0)"/><path class="cls-10" d="M563.28,397.2a7.19,7.19,0,0,1-7.89-4.92.27.27,0,0,1,.51-.17,6.63,6.63,0,0,0,7.34,4.55c.34-.05.37.48,0,.54Z" transform="translate(0 0)"/><path class="cls-10" d="M570.82,409.8a13.78,13.78,0,0,0,2.73-9.7.27.27,0,0,1,.54,0,14.37,14.37,0,0,1-2.86,10.09C571,410.43,570.62,410.07,570.82,409.8Z" transform="translate(0 0)"/><path class="cls-10" d="M562.61,381.62A4.07,4.07,0,0,0,566.1,380c.21-.28.61.07.4.35a4.56,4.56,0,0,1-3.86,1.81.28.28,0,0,1-.28-.25.27.27,0,0,1,.25-.29Z" transform="translate(0 0)"/><path class="cls-1" d="M605.62,377.46l-.36.54a53,53,0,0,0-4.34,7.52l-.28.6a56.5,56.5,0,0,0-5.06,20.14,55,55,0,0,0,.14,8.32c.35,3.82,1,7.93.14,11.54a9.4,9.4,0,0,1-.34,1.11l-18.35,7.43H577l-.72.33-.06-.43c0-.09,0-.17,0-.25l0-.16v0l0-.14c-.12-.83-.23-1.65-.34-2.48h0a80.79,80.79,0,0,1-.4-19c0-.19,0-.38.07-.58a53.1,53.1,0,0,1,1.67-8.36c.44-1.49,1-3,1.53-4.41a38.28,38.28,0,0,1,6.21-10.29c5.17-6.14,12.25-10.56,20.14-11.29Z" transform="translate(0 0)"/><path class="cls-10" d="M605.68,377.71a47.85,47.85,0,0,0-18.43,22.94,20.63,20.63,0,0,0-1.44,6.29,11.83,11.83,0,0,0,1.43,6.05,24.64,24.64,0,0,1,2.49,5.36,7.25,7.25,0,0,1-1.18,5.8,18.7,18.7,0,0,1-5.63,4.92c-2.33,1.52-4.78,3.05-6.25,5.48-.18.3-.62,0-.44-.29,2.55-4.24,7.71-5.66,10.94-9.22a7.38,7.38,0,0,0,2.14-6.09c-.34-2-1.5-3.73-2.43-5.49a12.73,12.73,0,0,1-1.62-5.87,19.24,19.24,0,0,1,1.19-6.32,46.61,46.61,0,0,1,6.92-12.74,48.59,48.59,0,0,1,12.07-11.3c.29-.18.52.3.24.48Z" transform="translate(0 0)"/><path class="cls-10" d="M588.22,397.56a7.17,7.17,0,0,1-3.33-8.67.27.27,0,0,1,.51.16,6.63,6.63,0,0,0,3.12,8.06C588.82,397.27,588.52,397.72,588.22,397.56Z" transform="translate(0 0)"/><path class="cls-10" d="M586.66,412.16a13.8,13.8,0,0,0,8-6.1c.18-.29.63,0,.45.3a14.45,14.45,0,0,1-8.36,6.33c-.33.09-.44-.43-.11-.53Z" transform="translate(0 0)"/><path class="cls-10" d="M597.07,384.72a4,4,0,0,0,3.76.8c.34-.09.44.43.11.53a4.59,4.59,0,0,1-4.17-.88.27.27,0,0,1-.07-.37A.26.26,0,0,1,597.07,384.72Z" transform="translate(0 0)"/></svg>