<svg id="Capa_1" data-name="Capa 1" xmlns="http://www.w3.org/2000/svg" viewBox="0 0 66.69 98.23"><defs><style>.cls-1{fill:#c0bcb9;}</style></defs><path class="cls-1" d="M65.61,30.19c0-.23-.06-.47-.11-.69s-.08-.35-.13-.51l-.14-.56c0-.15-.07-.31-.12-.45s-.15-.44-.23-.65l-.19-.52c0-.09-.07-.19-.11-.29a8.72,8.72,0,0,0-.42-.87L64,25.31c0-.06,0-.12-.08-.17-.19-.35-.41-.69-.62-1a1.57,1.57,0,0,1-.12-.19c-.3-.45-.57-.8-.84-1.14l-.11-.15c-.29-.36-.62-.72-1-1.08l-.1-.1A15.73,15.73,0,0,0,50.08,16.8H49.9a15.9,15.9,0,0,0,0,31.79h.19a15.76,15.76,0,0,0,11.12-4.7c.4-.41.73-.77,1-1.12l.12-.16c.26-.34.53-.69.78-1.06l.17-.27c.21-.34.43-.68.62-1l.08-.17.12-.25.07-.13c.13-.28.27-.55.39-.83,0-.09.07-.19.1-.28l.2-.53c.08-.21.16-.42.23-.64s.08-.3.12-.46l.15-.57c0-.16.09-.32.12-.49s.08-.47.11-.7l.08-.55c0-.11,0-.21,0-.32.05-.54.08-1.08.08-1.63s0-1.08-.08-1.62c0-.1,0-.21,0-.32Z" transform="translate(-16.66 -0.89)"/><path class="cls-1" d="M77.7,53.49c.15-.26.32-.54.56-.88l.08-.14c.42-.79,1.07-1.94,1.1-2a35.35,35.35,0,0,0,3.9-16.24c0-.61,0-1.22,0-1.82,0-.26,0-.52,0-.78l0-.52c0-.16,0-.33,0-.48s0-.43-.07-.64l-.05-.46c0-.22,0-.44-.07-.66s-.06-.35-.08-.52l-.07-.44-.12-.74-.12-.6L82.5,26c0-.18-.07-.37-.11-.54s-.13-.52-.2-.78l-.11-.44c0-.14-.07-.27-.11-.41-.08-.29-.16-.56-.25-.84l-.11-.35-.12-.4c-.09-.27-.19-.54-.29-.81l-.13-.36c0-.13-.09-.25-.14-.37-.11-.3-.24-.6-.37-.9l-.14-.33c0-.09-.07-.18-.11-.27-.18-.4-.37-.78-.56-1.17l-.13-.28c-.2-.39-.41-.76-.66-1.21l-.1-.19c-.23-.4-.47-.79-.75-1.23L78,15c-.25-.39-.52-.78-.81-1.18l-.07-.12c-.29-.39-.59-.79-.89-1.15a.31.31,0,0,0-.07-.09c-.32-.4-.65-.79-1-1.19s-.7-.76-1.07-1.13h0C68,4.1,59.71.89,50,.89,30.37.89,16.66,14.6,16.66,34.23a35.83,35.83,0,0,0,4.48,17.34l.5.92.06.1.84,1.29.24.35L44.11,90.08h0L49,98.39a1.48,1.48,0,0,0,1.27.72h0a1.46,1.46,0,0,0,1.27-.73l4.82-8.3h0L77.2,54.28Zm-9-18.89c0,.18-.05.35-.08.52l-.06.45c0,.3-.08.61-.14.9s-.11.46-.17.68l-.13.49c0,.21-.1.42-.16.63s-.2.56-.3.83l-.16.44c-.06.15-.11.31-.17.46-.15.34-.31.67-.48,1l-.15.3c-.05.11-.1.23-.16.34-.23.41-.48.82-.74,1.22l-.19.32c-.3.43-.61.85-.94,1.26a1.72,1.72,0,0,1-.13.18c-.35.42-.74.85-1.15,1.27a18.76,18.76,0,0,1-13.26,5.64h-.19a18.86,18.86,0,0,1,0-37.71h.2a18.7,18.7,0,0,1,13.19,5.58l.08.08c.43.43.79.85,1.12,1.25a1.83,1.83,0,0,1,.13.16c.34.43.65.85,1,1.28l.15.24c.3.48.55.89.78,1.3l.17.35.07.15c.22.43.39.78.55,1.15.06.15.12.31.17.47l.16.42c.1.28.21.55.3.83s.11.42.16.64l.12.47q.11.34.18.69c.06.29.1.59.14.9l.07.45c0,.17.06.34.07.52a18.39,18.39,0,0,1,0,3.83Z" transform="translate(-16.66 -0.89)"/></svg>