<svg id="Capa_1" data-name="Capa 1" xmlns="http://www.w3.org/2000/svg" viewBox="0 0 145.86 145.86"><defs><style>.cls-1{fill:none;}.cls-2{fill:#d23f2f;}.cls-3{fill:#181f32;}</style></defs><rect class="cls-1" x="22.55" y="61.41" width="27.19" height="27.19" transform="translate(-44.52 45.45) rotate(-45)"/><rect class="cls-1" x="61.41" y="22.55" width="27.19" height="27.19" transform="translate(-5.66 61.55) rotate(-45)"/><rect class="cls-1" x="61.41" y="100.26" width="27.19" height="27.19" transform="translate(-60.61 84.31) rotate(-45)"/><rect class="cls-1" x="100.26" y="61.41" width="27.19" height="27.19" transform="translate(-21.76 100.41) rotate(-45)"/><rect class="cls-2" x="86.94" y="56.43" width="27.19" height="10.5" transform="translate(-16.24 87.08) rotate(-45)"/><rect class="cls-2" x="48.08" y="95.28" width="27.19" height="10.5" transform="translate(-55.09 70.99) rotate(-45)"/><rect class="cls-2" x="74.73" y="44.22" width="27.19" height="10.5" transform="translate(-11.18 74.87) rotate(-45)"/><rect class="cls-2" x="35.87" y="83.07" width="27.19" height="10.5" transform="translate(-50.04 58.78) rotate(-45)"/><rect class="cls-2" x="44.22" y="48.08" width="10.5" height="27.19" transform="translate(-31.19 50.97) rotate(-45)"/><rect class="cls-2" x="56.43" y="35.87" width="10.5" height="27.19" transform="translate(-18.98 56.03) rotate(-45)"/><rect class="cls-2" x="95.28" y="74.73" width="10.5" height="27.19" transform="translate(-35.08 94.89) rotate(-45)"/><rect class="cls-2" x="83.07" y="86.94" width="10.5" height="27.19" transform="translate(-47.29 89.83) rotate(-45)"/><polygon class="cls-3" points="99.58 119.21 92.15 111.79 72.93 131.01 53.71 111.79 46.28 119.21 72.93 145.86 99.58 119.21"/><polygon class="cls-3" points="34.07 53.71 26.65 46.28 0 72.93 26.65 99.58 34.07 92.15 14.85 72.93 34.07 53.71"/><polygon class="cls-3" points="119.21 46.28 111.79 53.71 131.01 72.93 111.79 92.15 119.21 99.58 145.86 72.93 119.21 46.28"/><polygon class="cls-3" points="92.15 34.07 99.58 26.65 72.93 0 46.28 26.65 53.71 34.07 72.93 14.85 92.15 34.07"/></svg>