<svg id="Capa_1" data-name="Capa 1" xmlns="http://www.w3.org/2000/svg" viewBox="0 0 98.06 65.24"><defs><style>.cls-1{fill:#c0bcb9;}</style></defs><path class="cls-1" d="M1.16,77.36,44.1,52,1,26.61V75.82A7.06,7.06,0,0,0,1.16,77.36Z" transform="translate(-0.97 -17.38)"/><path class="cls-1" d="M46,53.16l-44.12,26a6.77,6.77,0,0,0,5.89,3.45H92.23a6.78,6.78,0,0,0,6.17-4L55.19,53.16,50.6,55.87Z" transform="translate(-0.97 -17.38)"/><path class="cls-1" d="M99,75.82V27.32L57.09,52,98.94,76.72A6.69,6.69,0,0,0,99,75.82Z" transform="translate(-0.97 -17.38)"/><path class="cls-1" d="M7.77,17.38A6.79,6.79,0,0,0,1,24.17v.2L50.6,53.63,99,25.07v-.9a6.79,6.79,0,0,0-6.8-6.79Z" transform="translate(-0.97 -17.38)"/></svg>