<?xml version="1.0" encoding="utf-8"?>
<!-- Generator: Adobe Illustrator 25.2.1, SVG Export Plug-In . SVG Version: 6.00 Build 0)  -->
<svg version="1.1" id="Capa_1" xmlns="http://www.w3.org/2000/svg" xmlns:xlink="http://www.w3.org/1999/xlink" x="0px" y="0px"
	 viewBox="0 0 98.7 93.8" style="enable-background:new 0 0 98.7 93.8;" xml:space="preserve">
<style type="text/css">
	.st0{fill:#ECEFF2;}
</style>
<path class="st0" d="M18,93.8l9.8-26.4C10.8,61.5,0,49.3,0,35.5C0,15.9,22.1,0,49.3,0s49.3,15.9,49.3,35.5
	c0,18.5-19.8,33.9-45.3,35.3L18,93.8z M49.3,6.6c-23.6,0-42.8,13-42.8,28.9C6.6,47.1,17,57.6,33,62.1l3.5,1l-5.3,14.3l20.2-13.1h0.9
	c22.4-1,39.9-13.7,39.9-28.8C92.1,19.5,72.9,6.6,49.3,6.6z"/>
<circle class="st0" cx="24.7" cy="36" r="7.8"/>
<circle class="st0" cx="49.3" cy="36" r="7.8"/>
<circle class="st0" cx="74" cy="36" r="7.8"/>
</svg>
