<svg id="Capa_1" data-name="Capa 1" xmlns="http://www.w3.org/2000/svg" viewBox="0 0 94.79 90.9"><defs><style>.cls-1{fill:#c0bcb9;}</style></defs><path class="cls-1" d="M34.92,36.79l3.13-3.45A14.38,14.38,0,0,0,37,13L31.76,8.27a14.38,14.38,0,0,0-20.31,1L8.33,12.74a14.1,14.1,0,0,0-1.15,1.45L7,14.35C4.09,16.87,1.57,23,3,30.53A80.64,80.64,0,0,0,74.7,95.35a20.26,20.26,0,0,0,12.35-2.58,14.22,14.22,0,0,0,3.51-2.83l3.13-3.46a14.39,14.39,0,0,0-1-20.3L87.4,61.41a14.38,14.38,0,0,0-20.3,1L64,65.89a14.08,14.08,0,0,0-3,5l-.28.84-.82-.33a60.49,60.49,0,0,1-32-29.36l-.45-.89,1-.29A14.27,14.27,0,0,0,34.92,36.79Z" transform="translate(-2.6 -4.55)"/></svg>